# xmcd CD database file
#
# Track frame offsets:
#	150
#	13928
#	29803
#	41502
#	54071
#	72882
#	86730
#	105144
#	120622
#	136431
#	153410
#	170267
#	185915
#
# Disc length: 2658 seconds
#
# Revision: 0
# Processed by: cddbd v1.5.1PL2 Copyright (c) Steve Scherf et al.
# Submitted via: CDex 1.51
#
DISCID=aa0a600d
DTITLE=Annett Louisan - Bohéme
DYEAR=2004
DGENRE=Jazz
TTITLE0=Das Spiel
TTITLE1=Die Lüge
TTITLE2=Die Dinge
TTITLE3=Das Gefühl
TTITLE4=Daddy
TTITLE5=Die Katze
TTITLE6=Der Schöne
TTITLE7=Die Gelegenheit
TTITLE8=Der Blender
TTITLE9=Die Trägheit
TTITLE10=Die Formel
TTITLE11=Das Liebeslied
TTITLE12=Das Spiel (Remix)
EXTD=YEAR: 2004
EXTT0=
EXTT1=
EXTT2=
EXTT3=
EXTT4=
EXTT5=
EXTT6=
EXTT7=
EXTT8=
EXTT9=
EXTT10=
EXTT11=
EXTT12=
PLAYORDER=
